# ProBuilder 5.0.3
# https://unity3d.com/unity/features/worldbuilding/probuilder
# 2022-01-25 오후 2:22:45

mtllib ./Teleport_Anchor.mtl
o Teleport Anchor

g Model
v -0.5 1.788139E-07 0
v -0.5 0.1000002 0
v -0.25 1.788139E-07 0.4330127
v -0.25 0.1000002 0.4330127
v 0.25 1.788139E-07 0.4330127
v 0.25 0.1000002 0.4330127
v 0.5 1.788139E-07 -5.960464E-08
v 0.5 0.1000002 -5.960464E-08
v 0.2499999 1.788139E-07 -0.4330127
v 0.2499999 0.1000002 -0.4330127
v -0.25 1.788139E-07 -0.4330127
v -0.25 0.1000002 -0.4330127
v 0 1.788139E-07 0
v 0 0.1000002 0

vt -0.25 1.788139E-07
vt -0.25 0.1000002
vt 0.25 1.788139E-07
vt 0.25 0.1000002
vt -0.25 1.788139E-07
vt -0.25 0.1000002
vt 0.25 1.788139E-07
vt 0.25 0.1000002
vt -0.5 0
vt 0 0
vt -0.25 0.4330127
vt 0.5 0
vt 0.25 0.4330127
vt 0.2499999 -0.4330127
vt -0.2499999 -0.4330127
vt -0.25 -0.4330127
vt 0.25 -0.4330127

vn -1 0 0
vn -0.5 0 0.8660254
vn 0.5000001 0 0.8660254
vn 1 0 -1.032383E-07
vn 0.4999999 0 -0.8660254
vn -0.5 0 -0.8660254
vn 0 -1 0
vn 0 1 0

usemtl Teleport_Anchor
f 1/9/7 13/10/7 3/11/7
f 3/11/7 13/10/7 5/13/7
f 5/13/7 13/10/7 7/12/7
f 7/12/7 13/10/7 9/14/7
f 9/14/7 13/10/7 11/16/7
f 11/16/7 13/10/7 1/9/7
f 4/13/8 14/10/8 2/12/8
f 6/11/8 14/10/8 4/13/8
f 8/9/8 14/10/8 6/11/8
f 10/15/8 14/10/8 8/9/8
f 12/17/8 14/10/8 10/15/8
f 2/12/8 14/10/8 12/17/8
f 4/4/2 2/2/1 1/1/1
f 1/1/1 3/3/2 4/4/2
f 6/4/3 4/6/2 3/5/2
f 3/5/2 5/3/3 6/4/3
f 8/4/4 6/6/3 5/5/3
f 5/5/3 7/3/4 8/4/4
f 10/8/5 8/6/4 7/5/4
f 7/5/4 9/7/5 10/8/5
f 12/4/6 10/2/5 9/1/5
f 9/1/5 11/3/6 12/4/6
f 2/8/1 12/6/6 11/5/6
f 11/5/6 1/7/1 2/8/1

